<svg width="331" height="332" viewBox="0 0 331 332" fill="none" xmlns="http://www.w3.org/2000/svg">
<path d="M111.712 307.025L10.3438 312.425L41.8922 132.875L140.158 128.825L111.712 307.025Z" fill="#DFE9EF"/>
<path d="M224.46 325.25L111.713 307.025L140.158 128.825L211.53 149.075L224.46 325.25Z" fill="#BBC3C7"/>
<path d="M320.656 302.3L224.459 325.25L211.529 149.075L289.107 122.75L320.656 302.3Z" fill="#DFE9EF"/>
<path d="M114.298 291.837L35.1685 295.887L59.4763 144.687L138.089 141.65L114.298 291.837Z" fill="#5DF6FF"/>
<path d="M223.425 311.75L114.299 291.837L138.089 141.65L212.564 161.9L223.425 311.75Z" fill="#00C0CF"/>
<path d="M299.452 293.188L223.425 311.75L212.564 161.9L274.11 142.663L299.452 293.188Z" fill="#5DF6FF"/>
<g opacity="0.7">
<path opacity="0.7" d="M111.713 237.5C110.161 237.838 108.61 238.513 107.575 239.188L108.092 239.525C98.2658 251.337 113.781 255.387 113.781 255.387C107.575 275.975 120.505 282.725 120.505 282.725C117.402 267.2 136.021 257.075 136.021 257.075C141.192 241.212 118.953 238.175 111.713 237.5Z" fill="#F361F5"/>
<path opacity="0.7" d="M105.506 236.15C96.1969 232.1 96.1969 225.687 96.1969 225.687C111.713 225.687 128.78 210.837 128.78 210.837C117.402 187.212 112.747 207.125 112.747 207.125C96.1969 195.65 117.402 190.25 117.402 190.25C104.472 186.875 98.7828 177.425 98.7828 177.425C98.2656 183.5 94.1281 183.162 94.1281 183.162C64.6484 172.7 59.4766 189.575 59.4766 189.575C64.1313 198.687 54.3047 199.7 54.3047 199.7C64.1313 200.712 69.3031 192.612 69.3031 192.612C89.4734 198.687 78.6125 220.962 78.6125 220.962C86.3703 223.662 88.4391 233.112 88.4391 233.112C94.1281 234.125 99.3 236.15 103.438 237.837C103.955 236.825 104.472 236.487 105.506 236.15Z" fill="#EDBA53"/>
<path opacity="0.7" d="M136.538 170.338C136.538 170.338 127.746 166.625 113.264 172.363C113.264 172.363 109.644 193.625 136.538 170.338Z" fill="#EEF8FB"/>
<path opacity="0.7" d="M158.259 175.063C146.881 162.913 128.262 179.45 128.262 179.45C134.986 182.825 135.503 185.863 134.468 188.563C129.814 198.688 136.02 201.725 136.02 201.725C139.64 193.288 152.053 191.938 152.053 191.938C150.501 184.175 158.259 175.063 158.259 175.063Z" fill="#5F5CFF"/>
<path opacity="0.7" d="M189.807 229.737C188.773 230.075 187.739 230.075 186.704 229.737C184.118 228.05 182.567 226.025 181.015 224C180.498 223.662 180.498 223.325 180.498 222.987C171.706 220.962 154.639 218.937 152.053 234.462C152.053 234.462 155.156 244.925 166.017 239.525C166.017 239.525 177.912 240.875 173.257 254.712C173.257 254.712 175.326 265.512 185.67 264.5C185.67 264.5 188.256 248.975 201.703 236.825C201.186 237.162 196.014 240.537 189.807 229.737Z" fill="#FF7033"/>
<path opacity="0.7" d="M275.66 177.088C275.66 177.088 250.318 182.825 222.39 181.137C222.39 181.137 224.976 175.738 215.149 175.062C215.149 175.062 202.22 185.188 207.909 190.925C207.909 190.925 205.323 201.05 202.22 186.2C202.22 186.2 197.048 194.975 189.29 192.95C189.29 192.95 187.221 201.725 182.567 195.988C182.567 195.988 186.187 197 187.221 194.3C187.221 194.3 176.36 187.212 170.154 198.012C170.154 198.012 164.982 199.363 167.051 204.088C167.051 204.088 170.671 200.038 172.74 206.113C172.74 206.113 174.809 205.1 175.326 197.338C175.326 197.338 180.498 195.65 176.36 202.062C176.36 202.062 187.739 202.062 170.154 208.475C170.154 208.475 169.12 208.475 168.603 206.113C168.603 206.113 166.017 211.85 160.328 213.875C160.328 213.875 161.879 216.237 157.742 217.25C157.742 217.25 155.673 220.963 160.845 220.963C160.845 220.963 165.499 212.525 174.292 219.275C174.292 219.275 175.843 218.938 173.257 215.562C173.257 215.562 177.912 216.575 179.464 220.963C179.464 220.963 182.049 220.625 182.567 216.912C182.567 216.912 186.187 211.85 191.876 217.925C191.876 217.925 184.118 216.575 182.049 221.3C182.049 221.3 185.67 220.287 187.739 221.637C187.739 221.637 187.739 224 185.67 224.675C186.704 225.688 187.739 227.037 189.29 227.712C190.324 228.387 190.324 229.063 189.807 229.738C193.945 234.125 201.185 239.525 206.874 230.75C206.874 230.75 199.634 233.113 197.565 226.363C197.565 226.363 215.667 227.712 220.321 239.525C220.321 239.525 225.493 237.162 227.045 229.4C227.045 229.4 233.251 229.737 240.492 239.525C240.492 239.525 243.595 239.187 242.043 232.775C242.043 232.775 253.939 229.737 247.215 217.25C247.215 217.25 257.042 225.687 253.939 214.887C253.939 214.887 264.799 206.787 251.87 201.387C251.87 201.387 252.387 195.312 260.145 196.325C260.145 196.325 267.903 183.837 264.282 198.688C264.282 198.688 264.282 201.725 269.454 204.762C269.454 204.762 271.523 200.037 267.903 194.637C268.937 193.962 276.695 184.85 275.66 177.088Z" fill="#6C732D"/>
<g opacity="0.7">
<path opacity="0.7" d="M164.983 209.825C167.052 206.787 160.328 203.75 160.328 203.75C161.363 210.5 162.914 212.525 164.983 209.825Z" fill="#F361F5"/>
<path opacity="0.7" d="M156.707 210.162C156.707 210.162 159.81 209.824 159.293 207.462C159.293 207.462 156.707 207.462 156.707 210.162Z" fill="#F361F5"/>
<path opacity="0.7" d="M155.673 196.325C155.673 196.325 147.398 196.325 150.501 199.025C153.087 201.387 155.673 196.325 155.673 196.325Z" fill="#F361F5"/>
</g>
<path opacity="0.7" d="M197.566 259.437C197.566 259.437 200.152 256.399 200.152 251.337C200.152 251.337 191.877 257.074 197.566 259.437Z" fill="#EDFF54"/>
<path opacity="0.7" d="M250.318 239.524C250.318 239.524 244.629 242.899 245.664 245.937C246.698 248.974 251.87 245.262 250.318 239.524Z" fill="#EEF8FB"/>
<path opacity="0.7" d="M274.109 250.325C276.695 247.625 260.145 244.25 260.145 244.25C263.248 246.95 271.523 252.687 274.109 250.325Z" fill="#EDFF54"/>
<path opacity="0.7" d="M254.973 250.662C259.111 246.612 243.078 248.637 243.078 248.637C243.078 248.637 253.422 252.35 254.973 250.662Z" fill="#F361F5"/>
<g opacity="0.7">
<path opacity="0.7" d="M261.179 251.674C261.179 251.674 258.075 256.062 246.18 257.749C246.18 257.749 248.766 261.124 246.18 267.874C246.18 267.874 258.075 258.762 264.799 271.924C264.799 271.924 270.488 273.949 274.625 261.799C274.625 261.799 269.454 257.412 267.902 251.337C268.419 251.337 266.868 259.099 261.179 251.674Z" fill="#FF3333"/>
<path opacity="0.7" d="M256.008 222.312C256.008 222.312 269.455 219.274 263.766 212.187C264.283 211.849 265.317 211.512 265.317 211.512C259.628 205.774 261.697 213.874 261.697 213.874C262.214 213.199 262.731 212.862 262.731 212.524C262.731 215.224 262.214 218.937 256.008 222.312Z" fill="#FF3333"/>
<path opacity="0.7" d="M116.884 195.312C116.884 195.312 126.711 204.425 127.745 194.3C128.262 191.937 126.711 191.6 125.159 191.6C124.642 184.85 117.401 182.825 117.401 182.825C112.746 184.512 113.264 186.875 113.264 186.875C117.401 187.212 119.987 190.587 121.539 193.287C121.021 194.3 119.47 195.312 116.884 195.312Z" fill="#FF3333"/>
</g>
<path opacity="0.7" d="M161.88 169.662C164.983 165.612 155.674 160.887 155.674 160.887C156.708 170.675 158.777 173.712 161.88 169.662Z" fill="#EDFF54"/>
<path opacity="0.7" d="M154.122 165.95C154.122 165.95 150.502 166.287 150.502 170C150.502 170 155.157 169.662 154.122 165.95Z" fill="white"/>
</g>
<g clip-path="url(#clip0_127_2)">
<g filter="url(#filter0_d_127_2)">
<path d="M176.5 0C124.246 0 81.8848 45.0609 81.8848 100.647C81.8848 119.236 85.3053 138.435 95.121 152.273L176.5 267L257.879 152.273C266.795 139.704 271.115 117.484 271.115 100.647C271.115 45.0609 228.754 0 176.5 0ZM176.5 58.2921C198.487 58.2921 216.316 77.2582 216.316 100.646C216.316 124.035 198.487 143.001 176.5 143.001C154.513 143.001 136.684 124.035 136.684 100.647C136.684 77.2582 154.513 58.2921 176.5 58.2921Z" fill="#003DB3"/>
</g>
<path fill-rule="evenodd" clip-rule="evenodd" d="M184.417 71.3333C184.417 75.9357 180.686 79.6667 176.083 79.6667C171.481 79.6667 167.75 75.9357 167.75 71.3333C167.75 66.731 171.481 63 176.083 63C180.686 63 184.417 66.731 184.417 71.3333ZM182.165 119.225C182.276 118.555 182.333 117.868 182.333 117.167C182.333 114.89 181.725 112.755 180.661 110.917C179.995 109.766 179.151 108.731 178.167 107.85C178.042 107.738 177.914 107.628 177.784 107.521C175.624 105.738 172.854 104.667 169.833 104.667C162.93 104.667 157.333 110.263 157.333 117.167C157.333 124.07 162.93 129.667 169.833 129.667C176.027 129.667 181.169 125.162 182.16 119.25C182.162 119.242 182.163 119.233 182.165 119.225ZM190.564 119.25C189.519 129.778 180.636 138 169.833 138C158.327 138 149 128.673 149 117.167C149 105.661 158.327 96.3333 169.833 96.3333V83.8333L180.397 83.8333L182.118 86.4147C184.129 89.4313 186.892 91.8709 190.135 93.4923L196.257 96.5533L192.53 104.007L186.408 100.946C183.307 99.3955 180.52 97.3107 178.167 94.7992V98.0668C183.649 100.462 187.901 105.149 189.713 110.917H194.833C200.78 110.917 204.813 116.966 202.526 122.455L197.785 133.833H188.757L194.833 119.25H190.564Z" fill="white"/>
</g>
<defs>
<filter id="filter0_d_127_2" x="77.8848" y="0" width="197.23" height="275" filterUnits="userSpaceOnUse" color-interpolation-filters="sRGB">
<feFlood flood-opacity="0" result="BackgroundImageFix"/>
<feColorMatrix in="SourceAlpha" type="matrix" values="0 0 0 0 0 0 0 0 0 0 0 0 0 0 0 0 0 0 127 0" result="hardAlpha"/>
<feOffset dy="4"/>
<feGaussianBlur stdDeviation="2"/>
<feComposite in2="hardAlpha" operator="out"/>
<feColorMatrix type="matrix" values="0 0 0 0 0 0 0 0 0 0 0 0 0 0 0 0 0 0 0.25 0"/>
<feBlend mode="normal" in2="BackgroundImageFix" result="effect1_dropShadow_127_2"/>
<feBlend mode="normal" in="SourceGraphic" in2="effect1_dropShadow_127_2" result="shape"/>
</filter>
<clipPath id="clip0_127_2">
<rect width="251" height="267" fill="white" transform="translate(51)"/>
</clipPath>
</defs>
</svg>
