<svg width="82" height="59" viewBox="0 0 82 59" fill="none" xmlns="http://www.w3.org/2000/svg">
<path d="M0 13.5585V53.4664C0 54.7709 1.62719 55.6628 3.1234 55.1788L22.7778 47.9375V3.6875L2.86431 10.1349C2.01893 10.4086 1.29425 10.881 0.783711 11.4912C0.273175 12.1014 0.000202467 12.8215 0 13.5585ZM27.3333 47.9375L54.6667 55.3125V11.0625L27.3333 3.6875V47.9375ZM78.8766 3.82117L59.2222 11.0625V55.3125L79.1357 48.8651C79.9812 48.5916 80.706 48.1192 81.2165 47.5089C81.7271 46.8987 82 46.1786 82 45.4415V5.53355C82 4.2291 80.3728 3.33719 78.8766 3.82117Z" fill="#003DB3"/>
<g filter="url(#filter0_d_82_1700)">
<path d="M40.4226 0C30.8549 0 23.0986 8.50518 23.0986 18.9969C23.0986 22.5056 23.7249 26.1294 25.5222 28.7414L40.4226 50.3958L55.323 28.7414C56.9554 26.369 57.7465 22.175 57.7465 18.9969C57.7466 8.50518 49.9903 0 40.4226 0ZM40.4226 11.0025C44.4483 11.0025 47.7129 14.5824 47.7129 18.9968C47.7129 23.4114 44.4483 26.9912 40.4226 26.9912C36.3968 26.9912 33.1323 23.4114 33.1323 18.9969C33.1323 14.5824 36.3968 11.0025 40.4226 11.0025Z" fill="#FF5311"/>
</g>
<path fill-rule="evenodd" clip-rule="evenodd" d="M42.598 13.7938C42.598 14.6235 41.8821 15.2961 40.9991 15.2961C40.116 15.2961 39.4002 14.6235 39.4002 13.7938C39.4002 12.9641 40.116 12.2915 40.9991 12.2915C41.8821 12.2915 42.598 12.9641 42.598 13.7938ZM42.1659 22.4276C42.1872 22.3069 42.1982 22.183 42.1982 22.0566C42.1982 21.6461 42.0815 21.2613 41.8774 20.9298C41.7497 20.7223 41.5877 20.5357 41.3988 20.3769C41.3748 20.3567 41.3503 20.3369 41.3255 20.3177C40.9109 19.9962 40.3794 19.8031 39.7999 19.8031C38.4754 19.8031 37.4016 20.812 37.4016 22.0566C37.4016 23.3011 38.4754 24.31 39.7999 24.31C40.9883 24.31 41.9748 23.4979 42.1651 22.4321C42.1653 22.4306 42.1656 22.4291 42.1659 22.4276ZM43.7774 22.4321C43.5768 24.3301 41.8726 25.8123 39.7999 25.8123C37.5923 25.8123 35.8027 24.1308 35.8027 22.0566C35.8027 19.9823 37.5923 18.3008 39.7999 18.3008V16.0473L41.8266 16.0473L42.1568 16.5127C42.5427 17.0565 43.0729 17.4963 43.6951 17.7886L44.8697 18.3404L44.1546 19.6841L42.9801 19.1323C42.3851 18.8528 41.8502 18.477 41.3988 18.0242V18.6133C42.4507 19.0451 43.2666 19.89 43.6141 20.9298H44.5966C45.7375 20.9298 46.5113 22.0204 46.0724 23.0099L45.1628 25.0612H43.4307L44.5966 22.4321H43.7774Z" fill="white"/>
<defs>
<filter id="filter0_d_82_1700" x="19.0986" y="0" width="42.6479" height="58.396" filterUnits="userSpaceOnUse" color-interpolation-filters="sRGB">
<feFlood flood-opacity="0" result="BackgroundImageFix"/>
<feColorMatrix in="SourceAlpha" type="matrix" values="0 0 0 0 0 0 0 0 0 0 0 0 0 0 0 0 0 0 127 0" result="hardAlpha"/>
<feOffset dy="4"/>
<feGaussianBlur stdDeviation="2"/>
<feComposite in2="hardAlpha" operator="out"/>
<feColorMatrix type="matrix" values="0 0 0 0 0 0 0 0 0 0 0 0 0 0 0 0 0 0 0.25 0"/>
<feBlend mode="normal" in2="BackgroundImageFix" result="effect1_dropShadow_82_1700"/>
<feBlend mode="normal" in="SourceGraphic" in2="effect1_dropShadow_82_1700" result="shape"/>
</filter>
</defs>
</svg>
